<svg width="255" height="255" viewBox="0 0 255 255" fill="none" xmlns="http://www.w3.org/2000/svg">
<g clip-path="url(#clip0)">
<path d="M146.7 1.5C140.3 0.5 133.8 0 127.1 0C120.4 0 113.9 0.5 107.5 1.5C46.7 11 0 63.7 0 127.1C0 177.2 29.2 220.7 71.5 241.4C71.7 241.5 71.9 241.6 72.1 241.7C77.5 244.3 83.1 246.6 88.9 248.4C89 248.4 89.1 248.5 89.3 248.5C95.2 250.3 101.3 251.8 107.5 252.7H107.6C110.3 253.1 113 253.4 115.7 253.7C118.8 254 121.9 254.2 125.1 254.2C125.8 254.2 126.5 254.2 127.2 254.2C128.7 254.2 130.2 254.2 131.7 254.1C199.7 251.7 254.2 195.6 254.2 127.1C254.2 63.7 207.5 11 146.7 1.5ZM131.6 224.1C130.1 224.2 128.6 224.2 127.1 224.2C126.4 224.2 125.7 224.2 125 224.2C122.3 224.2 119.5 224 116.9 223.7C116.5 223.7 116.1 223.6 115.6 223.6C112.8 223.3 110.1 222.8 107.4 222.3C104.3 221.7 101.3 220.9 98.4 220C98.3 220 98.2 219.9 98 219.9C92.1 218 86.4 215.6 81 212.7C80.9 212.6 80.8 212.6 80.7 212.5C50.6 195.9 30 163.9 30 127.1C30 80.3 63.3 41.1 107.5 32C113.8 30.7 120.4 30 127.1 30C130.7 30 134.2 30.2 137.7 30.6C186.3 35.9 224.2 77.1 224.2 127.1C224.2 179.1 183.1 221.7 131.6 224.1Z" fill="#699FF0"/>
<path d="M146.7 1.5L137.7 30.6C134.2 30.2 130.7 30 127.1 30C120.4 30 113.8 30.7 107.5 32C63.3 41.1 30 80.3 30 127.1C30 164 52.5 197.1 82.9 213.5L72.1 241.6C29.5 221.1 0 177.5 0 127.1C0 63.7 46.7 11 107.5 1.5C113.9 0.5 120.5 0 127.1 0C133.8 0 140.3 0.5 146.7 1.5Z" fill="#23A662"/>
<path d="M218.5 38.8C195.6 15 164.8 1.29998 131.8 0.0999756C131.7 0.0999756 131.7 0.0999756 131.6 0.0999756V30.1C183.6 32.5 224.1 74.9 224.1 127.1C224.1 170.3 195.1 208.7 153.6 220.5C146.4 222.5 131.5 224.5 124.5 224L120 254C130 256.5 152 252.1 161.8 249.4C187.9 242 211.4 226 228 204.4C245.1 182.1 254.2 155.3 254.2 127.1C254.2 94 241.5 62.6 218.5 38.8Z" fill="#C4FF8A"/>
<path d="M220.999 151L249.914 158.997C249.514 160.442 249.21 161.915 248.811 163.36C248.624 164.035 248.198 165.577 248.011 166.252L219.336 157.388C219.523 156.713 219.709 156.038 219.896 155.364C220.296 153.918 220.599 152.446 220.999 151Z" fill="#6294DF"/>
<path d="M30.5329 132.586L0.461345 133.109C0.42679 133.015 0.367828 131.119 0.333273 131.025C0.0181914 124.96 0.241418 118.911 0.815278 112.945C0.840008 112.723 0.86474 112.5 0.88947 112.278L31.0101 113.335C30.9508 113.463 30.9854 113.557 30.9261 113.686C30.0707 119.755 30.0948 123.583 30.3506 129.776C30.2913 129.904 30.4983 132.492 30.5329 132.586Z" fill="#117D45"/>
<path d="M125.689 224.125L122.397 254.187C122.397 254.187 116.95 253.824 116.85 253.832C110.49 253.342 100.633 251.411 94.5 250L103.5 221.5C106.67 222.247 111.159 223.09 114.397 223.431C117.128 223.712 119.86 223.993 122.675 224.067C123.073 224.035 125.29 224.157 125.689 224.125Z" fill="#4D7ABB"/>
</g>
<path d="M127.584 202.747C169.766 202.747 203.961 168.451 203.961 126.145C203.961 83.8387 169.766 49.5427 127.584 49.5427C85.4022 49.5427 51.2069 83.8387 51.2069 126.145C51.2069 168.451 85.4022 202.747 127.584 202.747Z" fill="#78F177"/>
<path fill-rule="evenodd" clip-rule="evenodd" d="M127.584 52.0427C86.7898 52.0427 53.7069 85.2125 53.7069 126.145C53.7069 167.077 86.7898 200.247 127.584 200.247C168.379 200.247 201.461 167.077 201.461 126.145C201.461 85.2125 168.379 52.0427 127.584 52.0427ZM48.7069 126.145C48.7069 82.4649 84.0145 47.0427 127.584 47.0427C171.154 47.0427 206.461 82.4649 206.461 126.145C206.461 169.825 171.154 205.247 127.584 205.247C84.0145 205.247 48.7069 169.825 48.7069 126.145Z" fill="#4FC64E"/>
<path d="M127.584 191.166C163.389 191.166 192.415 162.055 192.415 126.145C192.415 90.2347 163.389 61.1237 127.584 61.1237C91.7793 61.1237 62.7537 90.2347 62.7537 126.145C62.7537 162.055 91.7793 191.166 127.584 191.166Z" fill="#BFFABC"/>
<path fill-rule="evenodd" clip-rule="evenodd" d="M127.584 63.6237C93.1669 63.6237 65.2537 91.6085 65.2537 126.145C65.2537 160.682 93.1669 188.666 127.584 188.666C162.001 188.666 189.915 160.682 189.915 126.145C189.915 91.6085 162.001 63.6237 127.584 63.6237ZM60.2537 126.145C60.2537 88.8609 90.3917 58.6237 127.584 58.6237C164.777 58.6237 194.915 88.8609 194.915 126.145C194.915 163.429 164.777 193.666 127.584 193.666C90.3917 193.666 60.2537 163.429 60.2537 126.145Z" fill="#4FC64E"/>
<path d="M175.359 95.528C175.359 95.528 179.112 107.784 166.122 120.523C163.115 123.491 159.506 126.941 155.85 130.729C155.85 130.729 140.382 141.972 139.227 167.908C139.227 167.908 131.433 172.178 119.838 173.698C119.838 173.698 132.612 175.773 151.255 165.592C151.255 165.592 167.084 157.389 172.376 142.43L164.534 144.746L179.304 126.675L183.129 139.173L177.813 140.91C177.813 140.91 169.032 180.381 126.309 180.985C126.309 180.985 96.7206 182.722 78.1495 160.429C88.8543 175.701 108.773 184.893 126.285 184.893C159.651 184.893 186.665 157.944 186.665 127.11C186.665 118.955 184.043 105.999 175.359 95.528Z" fill="url(#paint0_linear)"/>
<path d="M105.573 150.947C105.309 147.304 105.02 143.009 104.563 138.449C104.563 138.449 105.766 121.947 89.3354 106.747C89.3354 106.747 90.8509 99.1954 96.3116 90.6787C96.3116 90.6787 87.844 97.9649 84.1634 115.988C84.1634 115.988 80.988 131.622 87.868 143.444L92.1018 135.796L94.1466 155.99L84.2837 150.609L85.7511 147.859C85.7511 147.859 64.5338 119.486 87.9402 90.8717C87.9402 90.8717 103.288 70.3158 128.282 70.4123C112.285 69.0129 95.1088 77.0712 85.3662 88.6762C66.7951 110.752 69.4653 143.637 89.7925 160.815C95.181 165.375 105.164 170.852 116.903 170.924C116.879 170.996 106.728 166.654 105.573 150.947Z" fill="url(#paint1_linear)"/>
<path d="M117.385 86.0704C117.385 86.0704 134.897 73.3556 156.187 87.8799C156.187 87.8799 162.176 91.4024 168.984 100.16C168.359 99.1953 165.304 92.1986 158.015 86.384C141.609 72.8249 118.756 76.3956 107.016 88.2418C103.312 91.8367 98.4285 99.2194 97.6587 107.688C97.6587 107.688 101.724 100.643 113.487 100.764C116.687 100.788 118.9 100.619 122.845 100.812C122.845 100.812 135.186 102.935 147.935 91.2817C147.935 91.2817 152.891 92.8259 158.905 97.3134C158.905 97.3134 153.973 90.7268 140.767 86.9631C140.767 86.9631 129.797 83.513 120.199 87.9281L125.323 91.6919L110.336 91.9332L114.811 84.8399L117.385 86.0704Z" fill="url(#paint2_linear)"/>
<path d="M96.6965 115.143C96.1192 113.213 94.9885 108.942 94.4834 104.045C93.8579 97.9889 94.0504 89.6894 98.5729 84.3332C98.7172 84.285 99.0299 84.1885 99.5591 84.1885C101.724 84.1885 106.728 85.5878 116.134 94.8525L96.6965 115.143Z" fill="#36B775"/>
<path d="M99.5591 84.8882C101.195 84.8882 105.91 85.8774 115.147 94.8766L97.0333 113.768C95.4937 108.098 92.2943 93.043 98.9577 84.9123C99.078 84.9123 99.2705 84.8882 99.5591 84.8882ZM99.5591 83.5129C98.5728 83.5129 98.1398 83.7783 98.1398 83.7783C88.9024 94.4906 96.3838 116.47 96.3838 116.47L117.096 94.8766C107.209 84.9847 101.868 83.5129 99.5591 83.5129Z" fill="#063629"/>
<path d="M96.7446 115.384C96.2154 113.575 94.9886 109.184 94.4593 104.045C93.8339 98.0613 94.0263 89.9065 98.3804 84.5504C99.1262 84.7676 100.978 85.4431 103.384 87.3732C106.271 89.6653 110.553 94.2493 114.738 103.104L96.7446 115.384Z" fill="#C2FF89"/>
<path d="M98.621 85.3467C99.487 85.6603 101.075 86.3841 103.071 88.0006C105.814 90.2203 109.855 94.5872 113.872 102.839L97.1536 114.226C96.5522 112.103 95.614 108.267 95.1569 103.9C94.748 100.064 94.8201 96.5897 95.3253 93.5739C95.8786 90.2926 97.0092 87.5181 98.621 85.3467ZM98.1158 83.7784C88.8784 94.4907 96.3597 116.47 96.3597 116.47L115.604 103.321C107.161 85.1295 98.1158 83.7784 98.1158 83.7784Z" fill="#063629"/>
<path opacity="0.15" fill-rule="evenodd" clip-rule="evenodd" d="M98.3082 85.1052C98.3082 85.1052 106.752 90.0994 109.23 100.426L112.718 98.5196C112.718 98.5196 104.178 84.1401 98.3082 85.1052Z" fill="black"/>
<path d="M98.5248 85.0089C99.3426 85.2743 101.051 85.9981 103.216 87.7352C106.006 89.979 110.168 94.4424 114.257 102.983L96.9611 114.781C96.3838 112.755 95.3253 108.701 94.8442 104.045C94.4353 100.185 94.4834 96.6621 94.9885 93.598C95.5899 90.0996 96.7687 87.2044 98.5248 85.0089ZM98.1158 83.7784C88.8784 94.4907 96.3597 116.47 96.3597 116.47L115.604 103.321C107.161 85.1295 98.1158 83.7784 98.1158 83.7784Z" fill="#063629"/>
<path d="M140.743 94.8766C150.124 85.5878 155.128 84.1885 157.293 84.1885C157.822 84.1885 158.159 84.285 158.279 84.3332C162.802 89.6894 162.994 97.9889 162.369 104.045C161.864 108.967 160.733 113.237 160.156 115.143L140.743 94.8766Z" fill="#36B775"/>
<path d="M157.317 84.8882C157.582 84.8882 157.798 84.9123 157.919 84.9605C159.723 87.1802 160.95 90.0754 161.551 93.622C162.056 96.6378 162.128 100.112 161.719 103.948C161.311 108.002 160.444 111.596 159.843 113.816L141.729 94.9007C150.966 85.8774 155.681 84.8882 157.317 84.8882ZM157.317 83.5129C155.008 83.5129 149.643 84.9847 139.805 94.8766L160.517 116.494C160.517 116.494 167.998 94.4906 158.761 83.8025C158.737 83.7542 158.304 83.5129 157.317 83.5129Z" fill="#063629"/>
<path d="M158.737 83.7542C158.737 83.7542 149.692 85.1052 141.248 103.321L160.493 116.47C160.493 116.47 167.974 94.4664 158.737 83.7542Z" fill="#C2FF89"/>
<path opacity="0.15" fill-rule="evenodd" clip-rule="evenodd" d="M158.544 85.1052C158.544 85.1052 150.1 90.0994 147.647 100.426L144.159 98.5196C144.159 98.5196 152.699 84.1401 158.544 85.1052Z" fill="black"/>
<path d="M158.231 85.3465C159.867 87.4938 160.974 90.2684 161.527 93.5978C162.032 96.6137 162.104 100.088 161.695 103.924C161.238 108.291 160.3 112.127 159.699 114.25L142.98 102.838C146.997 94.5629 151.039 90.196 153.781 87.9763C155.778 86.384 157.365 85.6602 158.231 85.3465ZM158.737 83.7542C158.737 83.7542 149.692 85.1052 141.248 103.321L160.493 116.47C160.493 116.47 167.974 94.4664 158.737 83.7542Z" fill="#063629"/>
<path d="M159.218 106.337C149.667 92.4399 131.866 92.5605 128.45 92.7294C125.034 92.5847 107.233 92.464 97.6828 106.337C97.6828 106.337 85.2699 124.456 86.6652 141.562C86.6652 141.562 86.9298 147.497 95.9988 154.301C95.9988 154.301 113.343 168.777 128.474 167.908C143.605 168.777 160.95 154.301 160.95 154.301C169.995 147.497 170.283 141.562 170.283 141.562C171.63 124.456 159.218 106.337 159.218 106.337Z" fill="#36B775"/>
<path d="M169.465 134.42C169.465 134.42 169.441 132.056 168.816 130.15C166.819 129.281 163.957 128.63 159.915 128.606C159.915 128.606 149.716 129.185 140.815 133.503C140.815 133.503 140.31 127.037 128.354 127.134C116.422 127.013 115.917 133.479 115.917 133.479C107.041 129.185 96.8649 128.606 96.8649 128.606C92.8957 128.63 90.0811 129.257 88.0845 130.126C87.9402 131.501 87.4109 134.324 87.4109 134.324C86.5449 140.018 86.5449 145.132 93.9541 151.984C93.9541 151.984 110.456 167.353 128.306 167.45V167.522C143.966 168.487 162.489 152.419 162.489 152.419C169.898 145.929 170.404 141.779 169.465 134.42Z" fill="#C2FF89"/>
<path opacity="0.15" fill-rule="evenodd" clip-rule="evenodd" d="M169.465 141.851C168.455 149.379 156.812 156.738 156.812 156.738C138.409 169.139 128.715 167.377 128.715 167.377C107.474 167.739 90.009 147.401 90.009 147.401C109.566 165.616 128.546 164.748 128.546 164.748C139.901 164.965 155.609 154.108 155.609 154.108C155.609 154.108 165.857 147.111 166.242 141.562C166.242 141.562 168.046 123.105 160.276 109.473C160.3 109.449 170.861 124.118 169.465 141.851Z" fill="black"/>
<path d="M129.942 94.0805C132.492 94.0805 137.567 94.3459 143.004 96.1554C149.475 98.3268 154.551 102.018 158.063 107.133C158.087 107.181 161.142 111.621 163.981 118.111C165.665 121.899 166.916 125.638 167.757 129.161C168.792 133.576 169.153 137.702 168.84 141.441V141.465V141.489C168.816 141.586 168.696 142.913 167.637 144.94C166.603 146.894 164.438 149.91 160.084 153.191L160.06 153.215L160.036 153.239C159.987 153.263 155.946 156.641 150.149 159.946C144.88 162.962 137.086 166.581 129.749 166.581C129.34 166.581 128.931 166.557 128.522 166.557H128.426H128.354C127.945 166.581 127.536 166.581 127.127 166.581C119.79 166.581 111.996 162.986 106.728 159.946C100.954 156.641 96.889 153.263 96.8409 153.239L96.8168 153.215L96.7927 153.191C92.4386 149.934 90.2736 146.918 89.2392 144.94C88.1808 142.937 88.0364 141.634 88.0364 141.489V141.441C87.7237 137.702 88.1086 133.576 89.1189 129.185C89.9368 125.638 91.2118 121.923 92.8717 118.135C95.7102 111.645 98.7653 107.157 98.7894 107.133C102.302 102.018 107.353 98.3268 113.848 96.1554C119.261 94.3459 124.361 94.0805 126.911 94.0805C127.56 94.0805 128.041 94.1046 128.354 94.1046H128.426H128.498C128.811 94.0805 129.292 94.0805 129.942 94.0805ZM129.942 92.6812C129.292 92.6812 128.787 92.7053 128.426 92.7053C128.065 92.6812 127.56 92.6812 126.911 92.6812C121.378 92.6812 106.199 93.8875 97.6588 106.337C97.6588 106.337 85.2459 124.456 86.6412 141.562C86.6412 141.562 86.9058 147.497 95.9749 154.301C95.9749 154.301 112.333 167.956 127.127 167.956C127.584 167.956 127.993 167.932 128.426 167.932C128.859 167.956 129.292 167.956 129.725 167.956C144.52 167.956 160.878 154.301 160.878 154.301C169.922 147.497 170.211 141.562 170.211 141.562C171.63 124.456 159.194 106.337 159.194 106.337C150.654 93.8875 135.475 92.6812 129.942 92.6812Z" fill="#063629"/>
<path d="M128.931 138.86H127.753V146.291H128.931V138.86Z" fill="#063629"/>
<path d="M138.794 145.591C138.626 144.698 137.952 145.012 137.952 145.012C136.148 145.518 133.213 145.687 133.213 145.687C129.966 145.687 128.643 142.937 128.306 142.141V141.899C128.306 141.899 128.282 141.948 128.258 142.02C128.234 141.948 128.21 141.899 128.21 141.899V142.141C127.897 142.961 126.574 145.687 123.326 145.687C123.326 145.687 120.416 145.518 118.611 145.012C118.611 145.012 117.938 144.722 117.769 145.591C117.769 145.591 116.254 152.974 123.326 155.386H133.189C140.31 152.974 138.794 145.591 138.794 145.591Z" fill="black"/>
<path d="M128.138 143.926L128.282 144.312L128.426 143.926C129.268 145.108 130.76 146.459 133.213 146.459H133.237H133.261C133.382 146.459 136.148 146.29 138.024 145.808C138.073 146.097 138.313 147.69 137.88 149.475C137.279 151.96 135.643 153.721 133.093 154.614H128.33H128.258H123.519C120.945 153.697 119.333 151.984 118.732 149.475C118.299 147.714 118.539 146.097 118.587 145.808C120.464 146.29 123.206 146.459 123.326 146.459H123.35H123.374C125.804 146.459 127.296 145.108 128.138 143.926ZM128.306 141.875C128.306 141.875 128.282 141.923 128.258 141.996C128.234 141.923 128.21 141.875 128.21 141.875V142.117C127.897 142.937 126.574 145.663 123.326 145.663C123.326 145.663 120.416 145.494 118.611 144.988C118.611 144.988 118.515 144.939 118.371 144.939C118.154 144.939 117.89 145.036 117.769 145.567C117.769 145.567 116.254 152.949 123.326 155.362H128.21H128.282H133.189C140.286 152.949 138.77 145.567 138.77 145.567C138.674 145.036 138.385 144.939 138.169 144.939C138.024 144.939 137.928 144.988 137.928 144.988C136.124 145.494 133.189 145.663 133.189 145.663C129.942 145.663 128.619 142.913 128.282 142.117L128.306 141.875Z" fill="#063629"/>
<path d="M128.282 143.661L127.921 144.336H128.643L128.282 143.661Z" fill="black"/>
<path d="M128.162 161.731C123.23 161.731 121.811 158.305 121.763 158.136L121.739 158.112C120.969 156.423 121.691 154.131 121.907 153.528C123.038 152.78 124.096 152.418 125.082 152.418C126.79 152.418 127.729 153.552 127.897 153.769L128.354 154.397L128.835 153.769C129.004 153.552 129.966 152.442 131.626 152.442C132.612 152.442 133.67 152.804 134.801 153.552C135.042 154.179 135.763 156.423 134.969 158.136V158.16V158.184C134.897 158.329 133.55 161.586 128.907 161.755C128.907 161.731 128.21 161.731 128.162 161.731Z" fill="#E26767"/>
<path d="M125.082 152.998C126.55 152.998 127.344 153.987 127.416 154.131L128.33 155.362L129.292 154.156C129.437 153.963 130.23 153.046 131.626 153.046C132.443 153.046 133.358 153.359 134.32 153.963C134.633 154.855 135.017 156.665 134.44 157.895L134.416 157.919L134.392 157.968C134.32 158.161 133.093 160.911 129.1 161.152L128.282 161.176C128.234 161.176 128.186 161.176 128.137 161.176C123.687 161.176 122.364 158.185 122.292 157.968V157.944L122.268 157.895C121.691 156.641 122.099 154.831 122.388 153.938C123.374 153.311 124.265 152.998 125.082 152.998ZM125.082 151.815C124.096 151.815 122.869 152.153 121.426 153.118C121.426 153.118 120.175 156.11 121.185 158.33C121.185 158.33 122.701 162.286 128.137 162.286C128.186 162.286 128.234 162.286 128.306 162.286C128.378 162.286 128.45 162.286 128.546 162.286C133.983 162.286 135.523 158.33 135.523 158.33C136.533 156.086 135.282 153.118 135.282 153.118C133.839 152.153 132.612 151.815 131.602 151.815C129.677 151.815 128.571 153.07 128.33 153.359C128.186 153.166 127.079 151.815 125.082 151.815Z" fill="#892D30"/>
<path d="M129.004 153.866H127.825V160.019H129.004V153.866Z" fill="#892D30"/>
<path d="M132.227 154.976C130.471 154.228 129.388 156.568 129.388 156.568C128.763 157.702 128.426 157.992 128.426 157.992C128.426 157.992 128.089 157.727 127.488 156.568C127.488 156.568 126.429 154.228 124.673 154.976C124.673 154.976 123.134 155.507 124.12 158.064C124.12 158.064 125.058 160.839 128.426 160.839C131.818 160.839 132.756 158.088 132.756 158.088C133.767 155.507 132.227 154.976 132.227 154.976Z" fill="#FDA8AC"/>
<path d="M128.595 130.415C124.625 130.415 121.426 131.742 121.426 133.382C121.426 136.278 126.502 139.655 128.354 139.655C130.158 139.655 135.763 136.278 135.763 133.382C135.787 131.742 132.564 130.415 128.595 130.415Z" fill="#000709"/>
<path d="M128.522 134.613C131.565 134.613 134.031 133.781 134.031 132.755C134.031 131.729 131.565 130.898 128.522 130.898C125.48 130.898 123.014 131.729 123.014 132.755C123.014 133.781 125.48 134.613 128.522 134.613Z" fill="#808080"/>
<path d="M109.326 103.876C109.326 103.876 114.065 102.525 117.36 105.227C117.336 105.203 114.402 100.426 109.326 103.876Z" fill="#023322"/>
<path d="M139.323 105.203C142.619 102.501 147.358 103.852 147.358 103.852C142.282 100.402 139.323 105.203 139.323 105.203Z" fill="#023322"/>
<path d="M117.385 120.692C117.072 113.912 112.573 112.079 112.573 112.079C107.113 110.317 103.673 115.529 103.673 115.529C100.185 120.185 102.205 125.131 102.205 125.131C111.274 124.6 115.989 126.699 115.989 126.699C117.697 124.842 117.385 120.692 117.385 120.692Z" fill="#24A462"/>
<path d="M115.869 120.379C115.075 114.347 111.202 113.744 111.202 113.744C106.68 112.948 104.467 117.532 104.467 117.532C102.734 121.006 104.322 124.094 104.322 124.094C111.491 123.587 115.292 125.686 115.292 125.686C116.398 124.239 115.869 120.379 115.869 120.379Z" fill="black"/>
<path d="M106.057 119.953C106.487 119.664 106.68 119.196 106.488 118.908C106.296 118.621 105.791 118.622 105.361 118.911C104.93 119.2 104.737 119.668 104.929 119.956C105.122 120.244 105.626 120.242 106.057 119.953Z" fill="white"/>
<path d="M111.563 116.591C111.298 115.819 110.505 116.108 110.505 116.108C110.023 116.277 109.566 116.253 109.566 116.253C110.505 115.915 110.047 115.143 110.047 115.143C109.518 114.395 108.532 114.998 108.532 114.998C107.137 115.867 107.329 117.749 107.329 117.749C108.58 118.207 110.192 117.99 110.192 117.99C111.876 117.725 111.563 116.591 111.563 116.591Z" fill="white"/>
<path d="M153.107 115.505C153.107 115.505 149.692 110.294 144.231 112.055C144.231 112.055 139.757 113.889 139.42 120.692C139.42 120.692 139.107 124.842 140.791 126.724C140.791 126.724 145.482 124.625 154.575 125.156C154.551 125.132 156.596 120.161 153.107 115.505Z" fill="#24A462"/>
<path d="M152.314 117.507C152.314 117.507 150.125 112.899 145.578 113.695C145.578 113.695 141.729 114.299 140.935 120.354C140.935 120.354 140.406 124.239 141.488 125.662C141.488 125.662 145.289 123.563 152.458 124.07C152.482 124.094 154.046 121.006 152.314 117.507Z" fill="black"/>
<path d="M143.557 118.858C143.317 118.593 142.812 118.641 142.403 118.955C141.994 119.269 141.849 119.727 142.066 119.992C142.306 120.258 142.812 120.21 143.221 119.896C143.629 119.582 143.774 119.124 143.557 118.858Z" fill="white"/>
<path d="M148.657 116.591C148.392 115.819 147.599 116.108 147.599 116.108C147.118 116.277 146.66 116.253 146.66 116.253C147.599 115.915 147.142 115.143 147.142 115.143C146.612 114.395 145.626 114.998 145.626 114.998C144.231 115.867 144.423 117.749 144.423 117.749C145.674 118.207 147.286 117.99 147.286 117.99C148.946 117.725 148.657 116.591 148.657 116.591Z" fill="white"/>
<g opacity="0.1">
<path opacity="0.1" d="M161.503 70.6534C167.95 80.7625 171.703 92.7776 171.703 105.661C171.703 141.562 142.691 170.683 106.872 170.683C94.4352 170.683 82.8162 167.16 72.9534 161.08C84.4761 179.127 104.635 191.07 127.584 191.07C163.379 191.07 192.415 161.973 192.415 126.072C192.415 102.621 180.05 82.0895 161.503 70.6534Z" fill="black"/>
</g>
<defs>
<linearGradient id="paint0_linear" x1="126.13" y1="185.541" x2="141.29" y2="90.1066" gradientUnits="userSpaceOnUse">
<stop stop-color="#34B675"/>
<stop offset="1" stop-color="#77C741"/>
</linearGradient>
<linearGradient id="paint1_linear" x1="91.3302" y1="167.377" x2="107.254" y2="67.1342" gradientUnits="userSpaceOnUse">
<stop stop-color="#39B771"/>
<stop offset="1" stop-color="#77C741"/>
</linearGradient>
<linearGradient id="paint2_linear" x1="131.841" y1="113.07" x2="137.452" y2="77.7506" gradientUnits="userSpaceOnUse">
<stop stop-color="#67C34C"/>
<stop offset="1" stop-color="#7CC82D"/>
</linearGradient>
<clipPath id="clip0">
<rect width="254.2" height="254.2" fill="white"/>
</clipPath>
</defs>
</svg>
